inDegrees=no
num_controls=7
num_derivatives=13
num_iterations=130
num_multipliers=7
num_parameters=0
num_slacks=7
num_states=26
objective=5.149391
objective_accelerations=0.632204
objective_balance=0.022474
objective_effort=0.164690
objective_height=4.255411
objective_ligament=0.074612
solver_duration=1536.954771
status=Solve_Succeeded
success=true
DataType=double
version=3
OpenSimVersion=4.4-2022-07-23-0e9fedc
endheader
time	/jointset/ground_pelvis/pelvis_tilt/value	/jointset/ground_pelvis/pelvis_tx/value	/jointset/ground_pelvis/pelvis_ty/value	/jointset/hip_l/hip_flexion_l/value	/jointset/hip_l/hip_adduction_l/value	/jointset/hip_l/hip_rotation_l/value	/jointset/back/lumbar_extension/value	/jointset/patellofemoral_l/patellar_flexion_l/value	/jointset/knee_l/knee_flexion_l/value	/jointset/knee_l/knee_adduction_l/value	/jointset/knee_l/knee_rotation_l/value	/jointset/ankle_l/ankle_angle_l/value	/jointset/subtalar_l/subtalar_angle_l/value	/jointset/ground_pelvis/pelvis_tilt/speed	/jointset/ground_pelvis/pelvis_tx/speed	/jointset/ground_pelvis/pelvis_ty/speed	/jointset/hip_l/hip_flexion_l/speed	/jointset/hip_l/hip_adduction_l/speed	/jointset/hip_l/hip_rotation_l/speed	/jointset/back/lumbar_extension/speed	/jointset/patellofemoral_l/patellar_flexion_l/speed	/jointset/knee_l/knee_flexion_l/speed	/jointset/knee_l/knee_adduction_l/speed	/jointset/knee_l/knee_rotation_l/speed	/jointset/ankle_l/ankle_angle_l/speed	/jointset/subtalar_l/subtalar_angle_l/speed	/forceset/tau_hip_flexion_l	/forceset/tau_hip_adduction_l	/forceset/tau_hip_rotation_l	/forceset/tau_knee_flexion_l	/forceset/tau_ankle_angle_l	/forceset/tau_subtalar_angle_l	/forceset/tau_lumbar_extension	lambda_cid13_p0	lambda_cid13_p1	lambda_cid13_p2	lambda_cid13_p3	lambda_cid13_p4	lambda_cid13_p5	lambda_cid14_p0	/jointset/ground_pelvis/pelvis_tilt/accel	/jointset/ground_pelvis/pelvis_tx/accel	/jointset/ground_pelvis/pelvis_ty/accel	/jointset/hip_l/hip_flexion_l/accel	/jointset/hip_l/hip_adduction_l/accel	/jointset/hip_l/hip_rotation_l/accel	/jointset/back/lumbar_extension/accel	/jointset/patellofemoral_l/patellar_flexion_l/accel	/jointset/knee_l/knee_flexion_l/accel	/jointset/knee_l/knee_adduction_l/accel	/jointset/knee_l/knee_rotation_l/accel	/jointset/ankle_l/ankle_angle_l/accel	/jointset/subtalar_l/subtalar_angle_l/accel	gamma_cid13_p0	gamma_cid13_p1	gamma_cid13_p2	gamma_cid13_p3	gamma_cid13_p4	gamma_cid13_p5	gamma_cid14_p0
0	0.04637895940194187	0.108779046576323	0.9028234726633803	0.1266917050730164	-0.3703806866214275	-0.2349645345558791	-0.2144974744115991	0.2051547269256827	0.2051547269256735	-0.1745327487948915	-0.1697866029642914	0.09024399430361882	0.07878172420671721	0	0	0	0	0	0	0	0	0	0	0	0	0	0.1262085168877518	-0.1012213466352545	-0.01534750195647576	-0.2768113680202747	0.2223363326050607	-0.06323842995294504	-0.0542951138358728	42.14059382283401	21.4514471790172	-5.26069814395532	-33.70912305503298	-441.0388259897734	-78.37765996788585	-26.58280329673526	-3.283749099367791	-0.682227148340061	-0.795483775273398	10.48284796962953	-0.1130885837477921	3.275207011183527	-3.475249178204089	9.912044381270832	9.912044381271706	2.289887098110898	-0.5655486130776115	3.729415005099625	0.9561818492821177	6.384918652156224e-09	6.022667821444738e-07	-1.266438233267835e-07	5.363824231312128e-08	-3.854686997894523e-10	2.713422699350121e-07	8.033082272319886e-08
0.01	0.04622200566973041	0.1087452356247553	0.9027848648151844	0.127201262514657	-0.3703853586151121	-0.2347931162145546	-0.2146749052549273	0.2056380593191399	0.2056380593191561	-0.1744199983892311	-0.1698026319062729	0.09042648471734901	0.07882930803477094	-0.03125969024024699	-0.006756891942815087	-0.007699861626008764	0.1014997444358928	-0.0009347710878550268	0.03414707418210306	-0.03523584250957927	0.09623587007546978	0.09623587007547373	0.02242444922712893	-0.003168577606685869	0.03629886603560391	0.009460021343288105	0.1224996032139725	-0.1055371229166955	-0.01436650936082486	-0.2712477398249272	0.2124604726590532	-0.0563314438600907	-0.0515056633468456	39.32444446968388	18.63938032521937	-4.463479300849765	-31.82753777761046	-441.6210620417052	-83.72600300353336	-26.58222559084417	-3.027420047690674	-0.6716147348478327	-0.7539812313386099	9.921775715914555	-0.08379658214947196	3.464005345432635	-3.510202863296926	9.414750961859367	9.414750961859385	2.199965314211103	-0.1869651370766553	3.550256587186364	0.9323209809555597	1.094305973532081e-09	8.635725865345029e-07	-1.24695708295586e-07	8.585105877125332e-08	-1.582253368488392e-07	3.144462848421904e-07	1.170507219195923e-07
0.02	0.04575638682283739	0.1086440168502393	0.9026699095757138	0.1287134650077063	-0.370399403361838	-0.2342843175866484	-0.215197184738545	0.2070708289416111	0.2070708289416085	-0.1740867551953718	-0.1698492371848015	0.09096599062831828	0.07896977381707848	-0.06173302293394074	-0.01348156458965159	-0.01526947825495235	0.2005290102855938	-0.001874550609503789	0.06747605731256104	-0.0689697280575939	0.1898874457979113	0.1898874457979141	0.04409855762213315	-0.006115267317881587	0.07140309944702806	0.01857639085070591	0.1187906895400339	-0.1098528991982031	-0.01338551676538068	-0.2656841116296534	0.2025846127129974	-0.04942445776731975	-0.04871621285788712	36.55382064283179	15.83302162996286	-3.682797485133173	-30.01135294475604	-441.4031548760965	-88.89704315167354	-26.58027874770001	-3.126477590056794	-0.6757832891446507	-0.7694347758603456	9.988752252391189	-0.1140902705065556	3.111588800854487	-3.174857785890945	9.395185510665216	9.395185510665076	2.139818931685928	-0.5211710339796475	3.490488480263314	0.8874514821079335	-4.196306705092061e-09	1.124878390924532e-06	-1.227475932643885e-07	1.180638752293854e-07	-3.160652049978891e-07	3.575502997493688e-07	1.537706211159858e-07
0.03	0.04498965349522037	0.1084755388419715	0.9024796810945392	0.1312042587418044	-0.3704227622607316	-0.2334481012531364	-0.216048953679979	0.2094275567724094	0.2094275567724555	-0.173540390338165	-0.1699257689020542	0.09185034350105553	0.07919979077685119	-0.09147638413515927	-0.0202248554181897	-0.02277088646563114	0.2972171389123734	-0.00278681391954903	0.09963235191337645	-0.1011388497732137	0.2809970757985459	0.2809970757985449	0.06503689175176808	-0.009117632904416617	0.1052316898823804	0.02737382956075221	0.1142667290004544	-0.1045783617205197	-0.01219026110285823	-0.2592464673830571	0.1934986050568144	-0.05049958183077557	-0.04543661542212484	33.55465171520206	16.59598392996339	-3.54275008760531	-27.71385867169856	-441.3794707008473	-86.38939172698122	-26.57670735630467	-2.877668779090294	-0.6752009907300566	-0.7397579672529081	9.44695515793107	-0.07838040489308991	3.247472831898351	-3.201157795347189	8.899664156923526	8.899664156923018	2.050389017602453	-0.1787984731829807	3.293710927926452	0.8677513518122473	-7.699418346666193e-09	1.246261919242929e-06	-1.161567795287246e-07	1.35583532238949e-07	-4.337371411699137e-07	3.654565398441047e-07	1.727797628848137e-07
0.04	0.04392960587679087	0.108239308123213	0.9022145857065408	0.1346495561601678	-0.3704549610014468	-0.2322943573651626	-0.2172150575247648	0.2126815433857099	0.2126815433857066	-0.172788732466806	-0.1700301301055038	0.09306591559869672	0.07951615438099637	-0.1203958810937489	-0.02703210668777524	-0.03024285961973907	0.3914297471435345	-0.003642518975173168	0.1309815682023225	-0.1318367087267757	0.3693392022856111	0.369339202285606	0.0851571604414096	-0.01168116457866191	0.137646944427936	0.03584571972516804	0.1097427684606341	-0.09930382424283536	-0.01099500544095935	-0.2528088231365267	0.1844125974005818	-0.05157470589423682	-0.04215701798650244	30.59698408793922	17.36645269850819	-3.420775352347891	-25.47215173606325	-440.618171687479	-83.71122081357061	-26.57084550792345	-2.961704741530676	-0.6885753773544259	-0.7635477645461564	9.493648173267475	-0.1027786196223492	2.950173138480578	-2.880605233479171	8.841684807951347	8.841684807951188	1.976205843687233	-0.4334042515217678	3.207821302303613	0.8223417729817269	-1.116567429675475e-08	1.364760452178406e-06	-1.094702400465768e-07	1.52800237507305e-07	-5.505808725589069e-07	3.726370526231203e-07	1.914237343974031e-07
0.05	0.04258395647870351	0.1079348229324291	0.9018746768683041	0.1390254108123284	-0.3704954740906623	-0.2308329500535728	-0.2186804096151128	0.2168061018857545	0.2168061018857843	-0.171839923404043	-0.170159835736409	0.09459901154253075	0.07991574518550142	-0.1485999776748967	-0.03386007808377316	-0.03774946052694277	0.4833223185541159	-0.004446107121504709	0.1611505117648231	-0.1610023770535152	0.4551294047587752	0.4551294047587708	0.1044607811316394	-0.01418905835189339	0.1687625174898484	0.04403344141295862	0.1053600031817905	-0.09665589075461822	-0.009769854399913158	-0.2474522194269624	0.1760597334328668	-0.05029690102490339	-0.03898963758460624	28.0067000581391	17.07335225285572	-3.155090694044503	-23.66084132931082	-440.0508196084716	-83.30850296512473	-26.56196174339338	-2.729645402408231	-0.6791493145390924	-0.7459101890301516	8.974235564687985	-0.06723559515794598	3.02790489669534	-2.899847788277132	8.381185586456185	8.381185586456439	1.886079029100714	-0.1488946289041602	3.0320096539186	0.8109352669089036	-1.183937344206592e-08	1.353127264972585e-06	-1.25137889451002e-07	1.56625687460995e-07	-6.118427409421411e-07	3.795730979640513e-07	1.94979835493433e-07
